<?xml version="1.0" encoding="UTF-8"?>
<!DOCTYPE svg PUBLIC "-//W3C//DTD SVG 1.1//EN" "http://www.w3.org/Graphics/SVG/1.1/DTD/svg11.dtd">
<!-- Creator: CorelDRAW 2018 (64-Bit Evaluation Version) -->
<svg xmlns="http://www.w3.org/2000/svg" xml:space="preserve" width="8in" height="1.17679in" version="1.1" style="shape-rendering:geometricPrecision; text-rendering:geometricPrecision; image-rendering:optimizeQuality; fill-rule:evenodd; clip-rule:evenodd"
viewBox="0 0 2996.01 440.71"
 xmlns:xlink="http://www.w3.org/1999/xlink">
 <defs>
  <style type="text/css">
   <![CDATA[
    .fil1 {fill:#010101}
    .fil0 {fill:#FE2A05}
   ]]>
  </style>
 </defs>
 <g id="Layer_x0020_1">
  <metadata id="CorelCorpID_0Corel-Layer"/>
  <g id="_610420746304">
   <g id="_168855719408">
    <path class="fil0" d="M1254 227.32c-10.77,2.29 -18.17,1.59 -28.95,0.89 0.08,-24.54 0.17,-49.1 0.24,-73.64 7.92,-0.03 29.21,-0.98 34.94,3.74 14.29,11.76 18.32,18.66 16.47,37.29 -2.52,25.31 -9.3,17.87 -12.72,29.03 -2.9,0.18 -7.17,1.81 -9.98,2.7l0 0zm156.63 -90.09c3.52,0 1.35,-0.14 3.25,-4.42l3.55 -4.31 3.78 -7.85 -0.1 0.37 1.57 -5.05c-50.39,-3.17 -27.61,8.71 -39.62,12.22 -0.42,4 0.15,2.4 -4.43,7.97 -4.15,-2.35 -7.16,-15.63 -11.87,-19.08 -4.52,-3.3 -33.8,-4.28 -33.27,0.56 0.8,7.41 26.34,34.68 27.09,41.39 0.82,7.4 -8.28,15.03 -12.36,23 -4.04,7.84 -8.56,9.23 -10.25,13.51 -4.28,10.83 -19.13,15.27 20.8,12.99 8.82,-0.5 6.81,-1.36 12.31,-9.79 0.73,-1.12 4.27,-14.47 8.83,-9.36 6.09,6.82 2.61,-1.81 6.66,9.12 4.28,11.55 7.12,8.48 21.1,9.25 3.77,0.2 14.6,1.16 17.89,0.74 -0.08,-3.5 -22.18,-35.8 -22.4,-35.65 -2.61,1.8 -1.72,-7.97 -8.58,-10.51 3.95,-10.32 9.11,-13.11 15.2,-23.57l0.91 -1.57 -0.04 0.01zm-230.47 -22.37c-2.79,9.05 -2.26,134.62 -1.13,151.53 14.43,-0.32 29.17,-0.03 43.65,-0.03 8.2,0 37.1,-1.48 42.14,-0.59 13.89,-0.42 22.86,-6.41 34.37,-13.2 8.04,-4.74 19.04,-23.28 21.06,-31.68 4.93,-20.53 5.23,-22.77 2.87,-45.1 -4.4,-41.6 -23.54,-41.61 -25.21,-45.49 -4.54,-10.61 -12.5,-7.35 -19.03,-12.32 -5.96,-4.55 -84.62,-2.93 -98.7,-3.12l-0.01 0zm-136.49 151.2l121.63 -0.08c4.06,-1.85 2.13,0.77 3.32,-3.53l-0.22 -15.05c0.01,-8.39 -1.8,-19.07 1.14,-19.07l-81.8 0.06 0.28 -19.52c8.78,2.34 68.66,1.25 81.37,0.45l0.04 -36.2 -12.34 -0.12 -67.76 -0.32c-2.74,-1.99 -1.08,0.37 -1.81,-3.03 -0.18,-0.82 -0.15,-4.38 -0.15,-5.41 0.01,-2.87 0.01,-5.47 0.31,-8.17l-0.82 -2.47 79.8 -0.78c3.26,-2.92 2.08,-31.21 1.36,-37.45l-125.73 -0.32c-1.92,7.06 -1.07,110.32 -0.77,133.72 0.18,15.05 -1.8,15.93 2.15,17.3l0.01 -0.01zm-53.56 -110.77c8.55,-2.03 34.32,-1.9 43.02,-0.22l-0.41 -39.75 -133.89 -0.28 0 13.79 0 24.2c9.89,0.15 35.8,-1.79 43.09,0.76 2.51,9.91 0.81,94.42 1.14,112.85l46.65 -0.69 0.41 -110.65 -0.01 0zm231.42 0.05c6.27,0.9 -1.23,-0.18 -2.78,-0.4l2.78 0.4z"/>
    <path class="fil1" d="M1713.9 230.11c3.87,3.68 12.62,30.91 47.2,37.6 18.94,3.66 37.68,0.82 52.63,-10.01 4.81,-3.48 7.72,-7.25 11.51,-9.97l5.38 17.21 12.25 0 0.42 -76.51c-2.25,-3.95 -5.05,-2.52 -15.33,-2.49l-50.19 0.46 -0.15 17.05 46.47 0.49 -0.38 8.01c-1.4,26.27 -25.08,42.33 -54.42,39.51 -26.7,-2.56 -39.6,-25.06 -41.53,-54.5 -1.94,-29.77 10.47,-55.78 32.37,-63.72 11.95,-4.33 28.19,-3.5 39.84,1.63 12.86,5.67 16.05,12.71 21.31,26.27l18.68 0.03c-0.45,-20.01 -18.66,-36.29 -34.09,-42.93 -5.98,-2.57 -14.73,-3.21 -20.37,-5.78l-15.09 0c-5.29,2.4 -13.45,2.63 -19.56,4.99 -15.54,5.98 -28.13,17.9 -35.94,33.65 -14.37,28.96 -6.86,54.61 -1.03,79.03l0.02 0zm-192.43 -87.87l3.96 1.03 20.1 60.94 -46.02 -0.44 21.97 -61.54 -0.01 0.01zm490.55 123.99c0.33,0.24 0.8,0.24 0.99,0.76 0.77,2.04 9.41,2.11 11.19,2.15l14.8 0.14c2.35,-0.13 4.69,-0.13 7.08,-0.54 5.41,-0.91 3.41,-0.51 5.87,-2.87 10.4,-0.32 24.75,-11.93 30.02,-18.62 3.28,-4.16 6.53,-9.29 9.19,-15.34 2.49,-5.68 3.25,-13.42 6,-18.58l0 -2.74 -19.4 0.05c-5.85,15.48 -4.86,20.3 -16.56,30.89 -18.44,16.68 -72.8,18.56 -75.56,-43.15 -2.52,-56.04 33.86,-77.7 67.31,-64.83 11.44,4.4 18.12,10.63 22,23.58l0.67 4.02 20.05 0.55c0.1,-5.23 -0.82,-4.13 -1.21,-4.91 -0.98,-14.1 -10.33,-24.25 -17.81,-30.73 -4.2,-3.64 -9.6,-6.68 -15.51,-8.87 -5.53,-2.04 -13.71,-2.49 -18.67,-4.75l-15.2 0c-10.28,4.78 -56.55,3.91 -62.52,69.47 -3.29,36.16 14.28,79.52 47.26,84.32l0.02 -0.01zm-395.96 -79.67c-2.58,-1.03 -0.71,-61.75 -1.56,-69.74l-16.08 -0.9c-8.04,0.59 -1.76,-0.15 -4.16,2.76l0.36 146.99 19.57 -0.77 0.19 -51.63 6.72 -6.05c1.66,-2.04 1,-1.3 1.45,-3.05 3.38,-1.79 0.44,0.5 3.89,-2.54 3.43,-3.02 4.95,-5.67 10.24,-9.02 5.17,4.49 9.43,11.85 13.76,17.85l39.18 54.59 25.37 0.1c-2.65,-9.46 -14.76,-17.42 -16.35,-25.74 -1.99,-1.35 -1.03,-0.38 -2.71,-2.04l-4.15 -5.49c-2.48,-3.29 -3.23,-4.36 -5.76,-7.88 -6.5,-9.05 -31.98,-42.08 -33.27,-47.55 5.02,-5.18 10.85,-10.58 16.01,-15.7 6.37,-6.34 43.15,-39.59 45.09,-43.95l-26.61 0.18 -59 57.86c-4.47,4.29 -5.46,4.49 -7.9,9.18 -1.8,0.63 -0.29,-0.22 -2.33,1.03 -0.03,0.01 -1.66,1.23 -1.95,1.44l-0.02 0.06zm263.76 12.04l81.41 -0.62c1.66,-5.76 1.45,-12.77 0.29,-18.43l-81.48 -0.98 0 -43.81 88.71 -0.09 0.14 -16.22c-1.43,-2.6 4.95,-2.38 -12.49,-2.21 -21.6,0.19 -85.22,-1.25 -96.72,0.54l-0.54 144.23c0.42,7.7 -0.38,1.68 2.96,4.1l107.66 0.09 0.17 -17.69 -89.73 -0.27 -0.4 -48.64 0.04 -0.01zm-303.01 28.89c-3.93,-4.58 -17.59,-45.5 -19.54,-50.82 -5.49,-14.88 -14.39,-36.25 -18,-51.32l-3.53 -8.29 -23.08 -0.27 -56.29 147.93 20.43 0.44c6.9,-12.03 9.82,-31.79 16.67,-43.15l58.16 -0.05c6.21,10.36 12.52,41.9 18.09,43.25l19.04 -0.09c-1.97,-10.37 -12.37,-29.1 -11.95,-37.63l0.01 -0z"/>
   </g>
  </g>
  <rect class="fil1" x="0" y="263.63" width="2996.01" height="177.08"/>
  <path class="fil1" d="M2570.29 387.46l-0.62 8.38 22.35 0c-0.5,-2.83 -1.44,-4 -2.99,-9.9 -2.95,-11.25 -1.05,-266.61 -1.05,-290.86l11.9 6.79c0.23,0.13 0.78,0.42 1.01,0.55 16.48,8.86 18.89,12.78 27.52,8.14 3.65,2.09 2.34,0.94 5.66,2.54 3.58,1.73 3.52,1.78 6.99,4.1l4.74 -6.37c-3.74,-4.94 -6.57,-5.88 -11.38,-9.15 1.82,-3.2 1.07,-2.3 2.21,-6.6l-9.43 -8.85c-8.54,-6.9 -16.8,-16.98 -27.15,-22.11 0.2,-7.65 3.85,-0.81 -3.23,-7.43 -7.21,-3.31 -3.02,0.1 -9.38,-5.25 -3.38,-2.85 -4.41,-4.64 -7.99,-7.55 -5.53,-4.49 -13.47,-12.25 -18.01,-14.77 -2.08,-26.81 -38.89,-34.93 -55.76,-11.92 -19.7,26.88 13.69,56.97 28.82,49.12 0.49,0.3 1.28,0.12 1.51,0.83l26.07 14.01c4.48,2.86 1.45,0.83 3.78,2.86l-2.21 0 1.84 2.58 0.37 -2.58 4.42 3.83 0 299.6z"/>
  <path class="fil1" d="M2460.89 404.01l0.5 6.75 -18 0c0.41,-2.28 1.16,-3.22 2.41,-7.97 2.38,-9.06 1.34,-159.42 1.34,-178.95l-9.59 5.47c-0.18,0.1 -0.63,0.34 -0.81,0.44 -13.27,7.14 -15.21,10.3 -22.17,6.56 -2.94,1.69 -1.89,0.75 -4.56,2.04 -2.89,1.39 -2.84,1.43 -5.63,3.3l-3.82 -5.13c3.02,-3.98 5.29,-4.73 9.16,-7.37 -1.46,-2.58 -0.86,-1.85 -1.78,-5.31l7.6 -7.12c6.88,-5.56 13.53,-13.68 21.87,-17.81 -0.16,-6.16 -3.1,-0.65 2.6,-5.98 5.81,-2.67 2.43,0.08 7.55,-4.23 2.72,-2.3 3.55,-3.74 6.44,-6.08 4.45,-3.61 10.85,-9.87 14.51,-11.89 1.67,-21.6 31.32,-28.13 44.91,-9.6 15.87,21.65 -11.03,45.89 -23.21,39.57 -0.39,0.24 -1.03,0.1 -1.22,0.67l-21 11.28c-3.6,2.31 -1.17,0.67 -3.04,2.3l1.78 0 -1.48 2.08 -0.3 -2.08 -3.56 3.09 -0.5 185.99z"/>
  <path class="fil1" d="M406.54 383.71l0.62 8.38 -22.35 0c0.5,-2.83 1.44,-4 2.99,-9.9 2.95,-11.25 1.05,-266.61 1.05,-290.86l-11.9 6.79c-0.23,0.13 -0.78,0.42 -1.01,0.55 -16.48,8.86 -18.89,12.78 -27.52,8.14 -3.65,2.09 -2.34,0.94 -5.66,2.54 -3.58,1.73 -3.52,1.78 -6.99,4.1l-4.74 -6.37c3.74,-4.94 6.57,-5.88 11.38,-9.15 -1.82,-3.2 -1.07,-2.3 -2.21,-6.6l9.43 -8.85c8.54,-6.9 16.8,-16.98 27.15,-22.11 -0.2,-7.65 -3.85,-0.81 3.23,-7.43 7.21,-3.31 3.02,0.1 9.38,-5.25 3.38,-2.85 4.41,-4.64 7.99,-7.55 5.53,-4.49 13.47,-12.25 18.01,-14.77 2.08,-26.81 38.89,-34.93 55.76,-11.92 19.7,26.88 -13.69,56.97 -28.82,49.12 -0.49,0.3 -1.28,0.12 -1.51,0.83l-26.07 14.01c-4.48,2.86 -1.45,0.83 -3.78,2.86l2.21 0 -1.84 2.58 -0.37 -2.58 -4.42 3.83 0 299.6z"/>
  <path class="fil1" d="M511.88 408.55l-0.5 6.75 18 0c-0.41,-2.28 -1.16,-3.22 -2.41,-7.97 -2.38,-9.06 2.71,-167.7 2.71,-187.23l9.59 5.47c0.18,0.1 0.63,0.34 0.81,0.44 13.27,7.14 15.21,10.3 22.17,6.56 2.94,1.69 1.89,0.75 4.56,2.04 2.89,1.39 2.84,1.43 5.63,3.3l3.82 -5.13c-3.02,-3.98 -5.29,-4.73 -9.16,-7.37 1.46,-2.58 0.86,-1.85 1.78,-5.31l-7.6 -7.12c-6.88,-5.56 -13.53,-13.68 -21.87,-17.81 0.16,-6.16 3.1,-0.65 -2.6,-5.98 -5.81,-2.67 -2.43,0.08 -7.55,-4.23 -2.72,-2.3 -3.55,-3.74 -6.44,-6.08 -4.45,-3.61 -10.85,-9.87 -14.51,-11.89 -1.67,-21.6 -31.32,-28.13 -44.91,-9.6 -15.87,21.65 11.03,45.89 23.21,39.57 0.39,0.24 1.03,0.1 1.22,0.67l21 11.28c3.6,2.31 1.17,0.67 3.04,2.3l-1.78 0 1.48 2.08 0.3 -2.08 3.56 3.09 -3.56 194.27z"/>
 </g>
</svg>
