<?xml version="1.0" encoding="UTF-8"?>
<!DOCTYPE svg PUBLIC "-//W3C//DTD SVG 1.1//EN" "http://www.w3.org/Graphics/SVG/1.1/DTD/svg11.dtd">
<!-- Creator: CorelDRAW 2018 (64-Bit Evaluation Version) -->
<svg xmlns="http://www.w3.org/2000/svg" xml:space="preserve" width="3.2in" height="0.418752in" version="1.1" style="shape-rendering:geometricPrecision; text-rendering:geometricPrecision; image-rendering:optimizeQuality; fill-rule:evenodd; clip-rule:evenodd"
viewBox="0 0 932.57 122.04"
 xmlns:xlink="http://www.w3.org/1999/xlink">
 <defs>
  <style type="text/css">
   <![CDATA[
    .fil1 {fill:#010101}
    .fil0 {fill:#FE2A05}
   ]]>
  </style>
 </defs>
 <g id="Layer_x0020_1">
  <metadata id="CorelCorpID_0Corel-Layer"/>
  <g id="_168855719408">
   <path class="fil0" d="M276.4 89.39c-8.38,1.78 -14.14,1.24 -22.53,0.69 0.06,-19.1 0.13,-38.21 0.19,-57.31 6.16,-0.02 22.73,-0.76 27.19,2.91 11.12,9.15 14.26,14.52 12.82,29.02 -1.96,19.7 -7.24,13.91 -9.9,22.59 -2.26,0.14 -5.58,1.41 -7.77,2.1zm121.89 -70.11c2.74,0 1.05,-0.11 2.53,-3.44l2.76 -3.35 2.94 -6.11 -0.08 0.29 1.22 -3.93c-39.21,-2.47 -21.49,6.78 -30.83,9.51 -0.33,3.11 0.12,1.87 -3.45,6.2 -3.23,-1.83 -5.57,-12.16 -9.24,-14.85 -3.52,-2.57 -26.3,-3.33 -25.89,0.44 0.62,5.77 20.5,26.99 21.08,32.21 0.64,5.76 -6.44,11.7 -9.62,17.9 -3.14,6.1 -6.66,7.18 -7.98,10.51 -3.33,8.43 -14.89,11.88 16.19,10.11 6.86,-0.39 5.3,-1.06 9.58,-7.62 0.57,-0.87 3.32,-11.26 6.87,-7.28 4.74,5.31 2.03,-1.41 5.18,7.1 3.33,8.99 5.54,6.6 16.42,7.2 2.93,0.16 11.36,0.9 13.92,0.58 -0.06,-2.72 -17.26,-27.86 -17.43,-27.74 -2.03,1.4 -1.34,-6.2 -6.68,-8.18 3.07,-8.03 7.09,-10.2 11.83,-18.34l0.71 -1.22zm-179.35 -17.41c-2.17,7.04 -1.76,104.76 -0.88,117.92 11.23,-0.25 22.7,-0.02 33.97,-0.02 6.38,0 28.87,-1.15 32.79,-0.46 10.81,-0.33 17.79,-4.99 26.75,-10.27 6.26,-3.69 14.82,-18.12 16.39,-24.65 3.84,-15.98 4.07,-17.72 2.23,-35.1 -3.42,-32.37 -18.32,-32.38 -19.62,-35.4 -3.53,-8.26 -9.73,-5.72 -14.81,-9.59 -4.64,-3.54 -65.85,-2.28 -76.81,-2.43zm-106.22 117.66l94.65 -0.06c3.16,-1.44 1.66,0.6 2.58,-2.75l-0.17 -11.71c0.01,-6.53 -1.4,-14.84 0.89,-14.84l-63.66 0.05 0.22 -15.19c6.83,1.82 53.43,0.97 63.32,0.35l0.03 -28.17 -9.6 -0.09 -52.73 -0.25c-2.13,-1.55 -0.84,0.29 -1.41,-2.36 -0.14,-0.64 -0.12,-3.41 -0.12,-4.21 0.01,-2.23 0.01,-4.26 0.24,-6.36l-0.64 -1.92 62.1 -0.61c2.54,-2.27 1.62,-24.29 1.06,-29.14l-97.84 -0.25c-1.49,5.49 -0.83,85.85 -0.6,104.06 0.14,11.71 -1.4,12.4 1.67,13.46zm-41.68 -86.2c6.65,-1.58 26.71,-1.48 33.48,-0.17l-0.32 -30.93 -104.19 -0.22 0 10.73 0 18.83c7.7,0.12 27.86,-1.39 33.53,0.59 1.95,7.71 0.63,73.48 0.89,87.82l36.3 -0.54 0.32 -86.11zm180.09 0.04c4.88,0.7 -0.96,-0.14 -2.16,-0.31l2.16 0.31z"/>
   <path class="fil1" d="M634.3 91.56c3.01,2.86 9.82,24.05 36.73,29.26 14.74,2.85 29.32,0.64 40.96,-7.79 3.74,-2.71 6.01,-5.64 8.96,-7.76l4.19 13.39 9.53 0 0.33 -59.54c-1.75,-3.07 -3.93,-1.96 -11.93,-1.94l-39.06 0.36 -0.12 13.27 36.16 0.38 -0.3 6.23c-1.09,20.44 -19.52,32.94 -42.35,30.75 -20.78,-1.99 -30.82,-19.5 -32.32,-42.41 -1.51,-23.17 8.15,-43.41 25.19,-49.59 9.3,-3.37 21.94,-2.72 31,1.27 10.01,4.41 12.49,9.89 16.58,20.44l14.54 0.02c-0.35,-15.57 -14.52,-28.24 -26.53,-33.41 -4.65,-2 -11.46,-2.5 -15.85,-4.5l-11.74 0c-4.12,1.87 -10.47,2.05 -15.22,3.88 -12.09,4.65 -21.89,13.93 -27.97,26.19 -11.18,22.54 -5.34,42.5 -0.8,61.5zm-149.75 -68.38l3.08 0.8 15.64 47.42 -35.81 -0.34 17.1 -47.89zm381.75 96.49c0.26,0.19 0.62,0.19 0.77,0.59 0.6,1.59 7.32,1.64 8.71,1.67l11.52 0.11c1.83,-0.1 3.65,-0.1 5.51,-0.42 4.21,-0.71 2.65,-0.4 4.57,-2.23 8.09,-0.25 19.26,-9.28 23.36,-14.49 2.55,-3.24 5.08,-7.23 7.15,-11.94 1.94,-4.42 2.53,-10.44 4.67,-14.46l0 -2.13 -15.1 0.04c-4.55,12.05 -3.78,15.8 -12.89,24.04 -14.35,12.98 -56.65,14.44 -58.8,-33.58 -1.96,-43.61 26.35,-60.47 52.38,-50.45 8.9,3.42 14.1,8.27 17.12,18.35l0.52 3.13 15.6 0.43c0.08,-4.07 -0.64,-3.21 -0.94,-3.82 -0.76,-10.97 -8.04,-18.87 -13.86,-23.91 -3.27,-2.83 -7.47,-5.2 -12.07,-6.9 -4.3,-1.59 -10.67,-1.94 -14.53,-3.7l-11.83 0c-8,3.72 -44.01,3.04 -48.65,54.06 -2.56,28.14 11.11,61.88 36.78,65.62zm-308.14 -62c-2.01,-0.8 -0.55,-48.05 -1.21,-54.27l-12.51 -0.7c-6.26,0.46 -1.37,-0.12 -3.24,2.15l0.28 114.39 15.23 -0.6 0.15 -40.18 5.23 -4.71c1.29,-1.59 0.78,-1.01 1.13,-2.37 2.63,-1.39 0.34,0.39 3.03,-1.98 2.67,-2.35 3.85,-4.41 7.97,-7.02 4.02,3.49 7.34,9.22 10.71,13.89l30.49 42.48 19.74 0.08c-2.06,-7.36 -11.49,-13.56 -12.72,-20.03 -1.55,-1.05 -0.8,-0.3 -2.11,-1.59l-3.23 -4.27c-1.93,-2.56 -2.51,-3.39 -4.48,-6.13 -5.06,-7.04 -24.89,-32.75 -25.89,-37 3.91,-4.03 8.44,-8.23 12.46,-12.22 4.96,-4.93 33.58,-30.81 35.09,-34.2l-20.71 0.14 -45.91 45.03c-3.48,3.34 -4.25,3.49 -6.15,7.14 -1.4,0.49 -0.23,-0.17 -1.81,0.8 -0.02,0.01 -1.29,0.96 -1.52,1.12zm205.26 9.37l63.35 -0.48c1.29,-4.48 1.13,-9.94 0.23,-14.34l-63.41 -0.76 0 -34.09 69.03 -0.07 0.11 -12.62c-1.11,-2.02 3.85,-1.85 -9.72,-1.72 -16.81,0.15 -66.32,-0.97 -75.27,0.42l-0.42 112.24c0.33,5.99 -0.3,1.31 2.3,3.19l83.78 0.07 0.13 -13.77 -69.83 -0.21 -0.31 -37.85zm-235.8 22.48c-3.06,-3.56 -13.69,-35.41 -15.21,-39.55 -4.27,-11.58 -11.2,-28.21 -14.01,-39.94l-2.75 -6.45 -17.96 -0.21 -43.81 115.12 15.9 0.34c5.37,-9.36 7.64,-24.74 12.97,-33.58l45.26 -0.04c4.83,8.06 9.74,32.61 14.08,33.66l14.82 -0.07c-1.53,-8.07 -9.63,-22.65 -9.3,-29.28z"/>
  </g>
 </g>
</svg>
