<!--?xml version="1.0" encoding="UTF-8"?-->

<!-- Creator: CorelDRAW 2018 (64-Bit Evaluation Version) -->
<svg xmlns="http://www.w3.org/2000/svg" xml:space="preserve" width="8.45858in" height="7.79095in" version="1.1" style="shape-rendering: geometricprecision; text-rendering: geometricprecision; fill-rule: evenodd; clip-rule: evenodd;" viewBox="0 0 1945.85 1792.27" xmlns:xlink="http://www.w3.org/1999/xlink">
 <defs>
  <style type="text/css">
   
    .str0 {stroke:#f2f2f2;stroke-width:12.78;stroke-miterlimit:2.61313}
    .fil0 {fill:none}
   
  </style>
 </defs>
 <g id="Layer_x0020_1">
  <metadata id="CorelCorpID_0Corel-Layer"></metadata>
  <path class="fil0 str0 ujbkgyNK_0" d="M972.6 1346.62c-2.32,-0.6 -4.14,-1.21 -5.95,-1.81 -34.39,-12.56 -68.77,-25.13 -103.16,-37.69 -21.82,-7.94 -42.98,-15.87 -64.8,-23.81 -8.6,-3.31 -7.94,-3.31 -4.63,-10.58 3.97,-8.6 10.58,-15.21 15.87,-22.48 45.63,-64.14 91.26,-128.29 136.22,-192.43 1.32,-1.32 1.98,-3.97 4.63,-4.63 8.55,96.72 15.14,194.1 22.38,292.13l-0.55 0.14 0 1.16zm0.66 -548.03l0 0 0 0zm0 195.08l0 0 0 0zm0 351.62l0 -153.9c0,0 0,0 0,0 -3.31,-46.29 -6.61,-91.92 -9.92,-137.54 0.66,0 0.66,-0.66 1.32,-0.66 1.32,1.98 3.31,3.31 4.63,5.29 1.32,1.98 2.65,3.31 3.97,4.63l0 -17.19c0,0 0,0 0,0 -1.98,-1.98 -3.31,-3.97 -5.29,-6.61 1.98,0 3.31,-0.66 5.29,-0.66l0 -16.53c0,0 0,0 0,0l0 0c-1.32,0.66 -3.31,1.32 -4.63,1.98 1.32,-2.65 3.31,-5.29 4.63,-7.94 0,0 0,0 0,0l0 -22.48c-11.24,20.5 -22.48,41 -37.69,60.18 -13.23,17.19 -25.79,35.71 -37.69,53.56 -2.65,3.31 -3.97,4.63 -7.27,0.66 -29.1,-33.06 -60.18,-64.14 -90.59,-96.55 -3.97,-3.97 -3.97,-5.95 1.32,-9.26 48.27,-27.11 96.55,-54.22 144.16,-81.34 9.26,-5.29 17.85,-9.92 27.11,-15.21 0,0 0,0 0,0l0 -19.84c0,0 0,0 0,0 -9.26,-5.29 -17.85,-9.92 -27.11,-15.21 -48.27,-27.11 -95.88,-54.22 -144.16,-81.34 -5.29,-3.31 -5.29,-4.63 -1.32,-9.26 30.42,-31.74 60.84,-63.48 90.59,-96.55 3.31,-3.97 4.63,-2.65 7.27,0.66 12.56,17.85 24.47,36.37 37.69,53.56 14.55,19.18 26.45,39.68 37.69,60.18l0 -22.48c0,0 0,0 0,0 -1.32,-2.65 -3.31,-5.29 -4.63,-7.94 1.32,0.66 3.31,1.32 4.63,1.98l0 -16.53c0,0 0,0 0,0l0 0c-1.98,0 -3.97,-0.66 -5.29,-0.66 1.98,-1.98 3.97,-3.97 5.29,-5.95 0,0 0,0 0,0l0 -16.53 0 -0.66c-1.32,1.32 -2.65,3.31 -3.97,4.63 -1.32,1.98 -3.31,3.31 -4.63,5.29 -0.66,0 -0.66,-0.66 -1.32,-0.66 3.31,-45.63 6.61,-91.92 9.92,-137.54 0,0 0,0 0,0l-0.66 -154.08c-7.27,98.53 -13.23,195.08 -20.5,292.94 -3.31,-0.66 -3.97,-3.31 -4.63,-4.63 -45.63,-64.14 -91.26,-128.29 -136.22,-192.43 -5.29,-7.27 -11.9,-14.55 -15.87,-22.48 -3.31,-7.27 -3.97,-7.27 4.63,-10.58 21.82,-7.94 42.98,-15.87 64.8,-23.81 34.39,-12.56 68.77,-25.13 103.16,-37.69 1.98,-0.66 3.97,-1.32 6.61,-1.98l-0.66 154.07c0,0 0,0 0,0 3.31,46.29 6.61,91.92 9.92,137.54 -0.66,0 -0.66,0.66 -1.32,0.66 -1.32,-1.98 -3.31,-3.31 -4.63,-5.29 -1.32,-1.98 -2.65,-3.31 -3.97,-4.63l0 17.19c0,0 0,0 0,0 1.98,1.98 3.31,3.97 5.29,6.61 -1.98,0 -3.31,0.66 -5.29,0.66l0 16.53c0,0 0,0 0,0l0 0c1.32,-0.66 3.31,-1.32 4.63,-1.98 -1.32,2.65 -3.31,5.29 -4.63,7.94 0,0 0,0 0,0l0 22.48c11.24,-20.5 22.48,-41 37.69,-60.18 13.23,-17.19 25.79,-35.71 37.69,-53.56 2.65,-3.31 3.97,-4.63 7.27,-0.66 29.1,33.06 60.18,64.14 90.59,96.55 3.97,3.97 3.97,5.95 -1.32,9.26 -48.27,27.11 -96.55,54.22 -144.16,81.34 -9.26,5.29 -17.85,9.92 -27.11,15.21 0,0 0,0 0,0l0 19.84c0,0 0,0 0,0 9.26,5.29 17.85,9.92 27.11,15.21 48.27,27.11 95.88,54.22 144.16,81.34 5.29,3.31 5.29,4.63 1.32,9.26 -30.42,31.74 -60.84,63.48 -90.59,96.55 -3.31,3.97 -4.63,2.65 -7.27,-0.66 -12.56,-17.85 -24.47,-36.37 -37.69,-53.56 -14.55,-19.18 -26.45,-39.68 -37.69,-60.18l0 22.48c0,0 0,0 0,0 1.32,2.65 3.31,5.29 4.63,7.94 -1.32,-0.66 -3.31,-1.32 -4.63,-1.98l0 16.53c0,0 0,0 0,0l0 0c1.98,0 3.97,0.66 5.29,0.66 -1.98,1.98 -3.97,3.97 -5.29,5.95 0,0 0,0 0,0l0 17.19c1.32,-1.32 2.65,-3.31 3.97,-4.63 1.32,-1.98 3.31,-3.31 4.63,-5.29 0.66,0 0.66,0.66 1.32,0.66 -3.31,45.63 -6.61,91.92 -9.92,137.54 0,0 0,0 0,0l0 155.4c7.27,-98.53 14.55,-195.74 21.16,-294.27 3.31,0.66 3.97,3.31 4.63,4.63 45.63,64.14 91.26,128.29 136.22,192.43 5.29,7.27 11.9,14.55 15.87,22.48 3.31,7.27 3.97,7.27 -4.63,10.58 -21.82,7.94 -42.98,15.87 -64.8,23.81 -34.39,12.56 -68.77,25.13 -103.16,37.69 -1.81,0.6 -3.63,1.21 -5.95,1.81zm1.32 -899.15l0 -0.01 0 -0.13c1.72,0.49 3.17,0.97 4.63,1.46 34.39,12.56 68.77,25.13 103.16,37.69 21.82,7.94 42.98,15.87 64.8,23.81 8.6,3.31 7.94,3.31 4.63,10.58 -3.97,8.6 -10.58,15.21 -15.87,22.48 -45.63,64.14 -91.26,128.29 -136.22,192.43 -1.32,1.32 -1.98,3.97 -4.63,4.63 -7.27,-97.87 -13.23,-195.07 -20.5,-292.94zm-1.18 -31.04c-20.11,-33.05 -40.22,-65.49 -60.98,-98.57 -43.64,-70.09 -86.63,-141.51 -129.61,-211.61 -18.52,-30.42 -37.69,-61.5 -56.21,-91.92 -2.65,-4.63 -5.95,-5.95 -11.24,-5.95 -59.51,0 -119.03,0.66 -177.88,0.66 -94.56,-0 -187.8,-0 -281.04,-0 -56.87,0 -113.74,0.66 -170.61,0.66 -24.47,0 -48.27,0 -72.74,0 -1.98,0 -3.97,-1.32 -5.29,0.66 33.06,44.97 66.13,89.27 99.19,134.24 46.95,62.82 93.24,125.64 140.85,188.46 31.08,40.34 61.5,81.34 91.26,123 20.5,29.1 42.98,57.53 64.14,85.97 55.55,73.4 109.77,146.8 164.66,220.86 27.11,36.37 54.22,72.74 81.34,108.45 3.31,3.97 25.79,26.45 22.48,30.42 -3.97,4.63 -4.63,5.29 -8.6,9.26 -3.31,3.31 -11.24,8.6 -13.89,12.56 -27.11,36.37 -54.22,72.74 -81.34,108.45 -54.89,73.4 -109.11,147.46 -164.66,220.86 -21.82,28.43 -43.64,56.87 -64.14,85.97 -29.76,41.66 -60.18,82.66 -91.26,123 -47.61,62.16 -93.9,125.64 -140.85,188.46 -33.73,44.31 -66.13,89.27 -99.19,134.24 1.32,1.98 3.97,0.66 5.29,0.66 24.47,0 48.27,0 72.74,0 56.87,0 113.74,0.66 170.61,0.66 93.24,0 186.48,0 279.72,0.66 59.51,0.66 119.03,0.66 177.88,0.66 5.29,0 8.6,-1.32 11.24,-5.95 18.52,-31.08 37.69,-61.5 56.21,-91.92 42.98,-70.76 85.97,-141.51 129.61,-211.61 20.5,-33.73 41,-66.79 62.16,-100.51 0,0 0,0 0,0l0 -0.25c20.28,33.35 40.57,66.07 61.5,99.43 43.64,70.09 86.63,141.51 129.61,211.61 18.52,30.42 37.69,61.5 56.21,91.92 2.65,4.63 5.95,5.95 11.24,5.95 59.51,0 119.03,-0.66 177.88,-0.66 93.24,-0.66 186.48,-0.66 279.72,-0.66 56.87,0 113.74,-0.66 170.61,-0.66 24.47,0 48.27,0 72.74,0 1.98,0 3.97,1.32 5.29,-0.66 -33.06,-44.97 -66.13,-89.27 -99.19,-134.24 -46.95,-61.49 -93.24,-124.97 -140.85,-187.13 -31.08,-40.34 -61.5,-81.34 -91.26,-123 -20.5,-29.1 -42.98,-57.53 -64.14,-85.97 -55.55,-73.4 -109.77,-146.8 -164.66,-220.86 -27.11,-36.37 -54.22,-72.74 -81.34,-108.45 -3.31,-3.97 -10.58,-9.26 -13.89,-12.56 -3.97,-3.97 -5.29,-3.97 -8.6,-9.26 -2.65,-3.97 19.84,-25.79 22.48,-30.42 27.11,-36.37 54.22,-72.74 81.34,-108.45 54.89,-73.4 109.11,-147.46 164.66,-220.86 21.82,-28.43 43.64,-56.87 64.14,-85.97 29.76,-41.66 60.18,-82.66 91.26,-123 47.61,-62.16 93.9,-125.64 140.85,-188.46 33.73,-44.31 66.13,-89.27 99.19,-134.24 -1.32,-1.98 -3.97,-0.66 -5.29,-0.66 -24.47,0 -48.27,0 -72.74,0 -56.87,0 -113.74,-0.66 -170.61,-0.66 -93.24,0 -186.48,0 -279.72,-0.66 -59.51,-0.66 -119.03,-0.66 -177.88,-0.66 -5.29,0 -8.6,1.32 -11.24,5.95 -18.52,31.08 -37.69,61.5 -56.21,91.92 -42.98,70.76 -85.97,141.51 -129.61,211.61 -20.24,33.3 -40.48,65.95 -61.36,99.24zm654.52 971.36c64.14,84.64 127.62,168.62 191.11,253.93 -15.87,2.65 -30.42,5.29 -45.63,7.27 -41,6.61 -82,13.23 -122.33,19.84 -5.29,0.66 -7.27,0.66 -7.94,-5.29 -1.98,-39.68 -4.63,-78.69 -6.61,-117.71 -3.31,-50.26 -5.95,-101.17 -9.26,-151.43 -0,-1.98 -0.66,-3.97 0.66,-6.61zm-13.23 -5.95c1.98,11.24 1.98,22.48 2.65,33.06 3.31,51.58 5.95,103.16 9.26,154.74 1.98,31.08 3.31,62.16 5.95,92.58 0.66,6.61 -1.98,6.61 -7.27,5.29 -39.68,-9.92 -78.69,-19.84 -118.37,-29.1 -34.39,-8.6 -68.77,-16.53 -103.16,-25.13 -1.98,-0.66 -3.97,0 -5.95,-1.98 70.76,-77.37 144.82,-152.09 216.9,-229.46zm-444.37 -361.05c0,-5.29 1.98,-7.27 7.27,-9.26 40.34,-12.56 81.34,-25.79 121.67,-38.35 1.98,-0.66 3.97,-1.98 7.27,-1.32 -45.63,93.9 -89.93,188.46 -134.24,283.69 -2.65,-3.31 -1.98,-5.95 -1.98,-7.94 0.66,-76.05 0.66,-151.43 0,-226.82zm11.9 267.15c59.51,0 119.69,0 179.2,0 2.65,0 4.63,0 7.27,0 0,0.66 0.66,1.32 0.66,1.32 -60.18,43.64 -120.35,87.95 -181.19,132.25 -2.65,-7.27 -2.65,-13.89 -3.31,-21.16 -3.97,-34.39 -7.94,-68.11 -11.9,-102.5 0,0 0,-0.66 0,-0.66 -1.98,-9.26 -1.98,-9.26 9.26,-9.26zm195.08 8.6c8.6,-6.61 14.55,-6.61 24.47,-3.31 64.8,23.81 129.61,46.95 194.41,70.09 1.98,0.66 3.97,1.98 7.94,3.31 -11.24,3.31 -21.16,5.95 -31.74,8.6 -62.16,17.19 -124.32,34.39 -187.14,50.92 -26.45,7.27 -52.24,14.55 -78.69,21.82 -3.31,0.66 -5.95,1.32 -9.26,0.66 -31.74,-6.61 -63.48,-12.56 -95.88,-18.52 -1.32,0 -2.65,-0.66 -4.63,-1.32 7.94,-5.29 14.55,-10.58 21.16,-15.87 52.9,-38.35 106.46,-76.71 159.37,-116.38zm-187.14 142.17c31.74,6.61 62.82,12.56 94.56,18.52 -56.21,32.4 -110.43,66.79 -165.32,99.85 -0.66,-0.66 -0.66,-0.66 -1.32,-1.32 2.65,-4.63 5.29,-9.26 7.94,-14.55 7.27,-12.56 15.87,-25.13 21.82,-38.35 9.92,-21.16 23.81,-40.34 34.39,-60.84 1.98,-1.98 3.97,-3.97 7.93,-3.31zm108.45 23.14l78.03 146.8 -260.54 -37.03 182.51 -109.77zm21.16 14.55c-1.98,-4.63 -4.63,-8.6 -7.27,-12.56 -2.65,-3.31 -1.98,-5.29 2.65,-6.61 19.18,-5.29 38.35,-10.58 57.53,-15.87 73.4,-20.5 146.14,-40.34 219.54,-60.84 1.32,-0.66 3.31,-0.66 4.63,-1.32 0,0 0,0 0,0 1.32,-1.32 3.31,-1.98 4.63,-0.66 1.32,1.32 -0.66,1.98 -1.32,2.65 -23.14,25.13 -46.29,50.26 -70.09,74.72 -46.29,46.95 -90.59,95.22 -136.22,142.83 -6.61,6.61 -6.61,6.61 -10.58,-1.32 -19.18,-41.66 -42.32,-80.68 -63.48,-121.01zm13.23 -485.37c10.58,14.55 21.82,28.43 32.4,42.98 54.22,72.74 108.45,146.14 163.33,218.88 25.13,33.73 50.26,67.45 76.05,100.51 -2.65,1.98 -4.63,0 -6.61,-0.66 -66.79,-23.81 -134.24,-48.27 -201.03,-72.08 -4.63,-1.32 -5.95,-3.97 -7.27,-7.94 -14.55,-75.38 -31.08,-150.11 -47.61,-224.83 -3.97,-17.85 -7.27,-35.05 -11.24,-52.9 0,0 0,0 0,0 -1.98,-2.65 -0.66,-5.29 -2.65,-8.6 3.3,1.32 3.97,2.65 4.63,4.63zm-17.19 -11.9c3.31,15.21 6.61,29.1 9.26,42.98 17.85,82.66 36.37,165.98 54.22,248.64 1.32,5.29 -0.66,6.61 -5.95,6.61 -64.14,0 -128.29,0 -192.43,0 -7.27,0 -7.27,0 -4.63,-6.61 35.71,-74.06 70.09,-148.79 105.8,-222.85 9.92,-20.5 19.84,-41 29.76,-61.5 1.32,-1.99 1.98,-3.97 3.97,-7.28zm-23.14 -42.32c4.63,5.95 8.6,11.9 13.23,17.85 2.65,3.31 1.98,4.63 -2.65,5.95 -34.39,10.58 -68.11,21.82 -102.5,32.4 0,0 0,0 0,0 -1.98,1.32 -3.31,2.65 -5.95,1.98 0,-1.98 1.32,-2.65 3.31,-3.31 25.13,-19.18 50.26,-38.35 75.38,-57.53 11.24,-7.93 11.24,-7.93 19.18,2.65zm-19.84 -57.53c-8.6,5.95 -17.19,11.9 -25.13,18.52 8.6,5.95 16.53,12.56 25.13,18.52 3.31,1.98 2.65,3.31 0,5.29 -33.06,25.13 -66.13,50.26 -99.19,75.38 -3.97,3.31 -5.95,2.65 -7.94,-2.65 -4.63,-17.85 -11.24,-35.05 -15.21,-52.9 -3.31,-14.55 -7.27,-29.1 -11.9,-42.98 4.63,-14.55 8.6,-28.43 11.9,-42.98 3.97,-17.85 9.92,-35.71 15.21,-52.9 1.32,-5.29 3.31,-5.95 7.94,-2.65 33.06,25.13 66.13,50.26 99.19,75.38 2.64,0.66 3.31,1.99 0,3.97zm-100.51 -339.23c44.97,95.22 88.61,189.78 134.24,283.69 -3.31,1.32 -5.29,-0.66 -7.27,-1.32 -40.34,-12.56 -81.34,-25.79 -121.67,-38.35 -5.29,-1.98 -7.27,-3.97 -7.27,-9.26 0,-75.38 0,-151.43 0,-226.82 0.66,-2.65 -0,-4.63 1.98,-7.94zm429.16 -123.66c-1.32,1.32 -3.31,0 -4.63,-0.66 0,0 0,0 0,0 -1.32,-0.66 -3.31,-0.66 -4.63,-1.32 -73.4,-19.84 -146.14,-40.34 -219.54,-60.84 -19.18,-5.29 -38.35,-10.58 -57.53,-15.87 -4.63,-1.32 -5.29,-2.65 -2.65,-6.61 2.65,-3.97 5.29,-8.6 7.27,-12.56 21.16,-40.34 44.31,-80.01 63.48,-121.01 3.97,-7.94 3.97,-7.94 10.58,-1.32 45.63,47.61 89.93,95.88 136.22,142.83 23.81,24.47 46.95,49.6 70.09,74.72 0.66,0.66 2.65,1.32 1.32,2.64zm1.98 11.9c-3.31,1.32 -5.29,2.65 -7.94,3.31 -64.8,23.14 -129.61,46.29 -194.41,70.09 -9.26,3.31 -15.21,3.31 -24.47,-3.31 -52.24,-39.68 -105.8,-78.03 -159.37,-116.38 -6.61,-5.29 -13.89,-9.92 -21.16,-15.87 2.65,-0.66 3.97,-1.32 4.63,-1.32 31.74,-6.61 63.48,-12.56 95.88,-18.52 3.31,-0.66 5.95,0 9.26,0.66 26.45,7.27 52.24,14.55 78.69,21.82 62.16,17.19 124.32,34.39 187.14,50.92 9.92,2.65 20.5,5.29 31.74,8.6zm-304.85 -95.22l-182.51 -109.77 260.54 -37.03 -78.03 146.8zm-178.54 -95.22c54.89,33.06 109.11,67.45 165.32,99.85 -31.74,5.95 -63.48,12.56 -94.56,18.52 -3.97,0.66 -5.95,-1.32 -7.27,-3.97 -10.58,-20.5 -24.47,-39.68 -34.39,-60.84 -5.95,-13.23 -14.55,-25.79 -21.82,-38.35 -2.65,-4.63 -5.29,-9.26 -7.94,-14.55 0,0 0,-0.66 0.66,-0.66zm64.8 156.72c0.66,-6.61 0.66,-13.89 3.31,-21.16 60.84,44.31 121.01,88.61 181.19,132.25 0,0.66 -0.66,1.32 -0.66,1.32 -2.65,0 -4.63,0 -7.27,0 -59.51,0 -119.69,0 -179.2,0 -11.24,0 -11.24,0 -9.92,-9.92 0,0 0,-0.66 0,-0.66 3.97,-33.72 7.93,-68.11 12.56,-101.84zm121.01 446.36c-4.63,5.95 -8.6,11.9 -13.23,17.85 -7.94,10.58 -7.94,10.58 -18.52,2.65 -25.13,-19.18 -50.26,-38.35 -75.38,-57.53 -1.98,-0.66 -3.31,-0.66 -3.31,-3.31 2.65,-0.66 3.97,0.66 5.95,1.98 0,0 0,0 0,0 34.39,10.58 68.11,21.82 102.5,32.4 3.31,1.32 4.63,1.98 1.99,5.95zm9.92 -25.13c-1.98,-3.31 -2.65,-5.29 -3.97,-6.61 -9.92,-20.5 -19.84,-41 -29.76,-61.5 -35.71,-74.06 -69.43,-148.79 -105.8,-222.85 -3.31,-6.61 -3.31,-6.61 4.63,-6.61 64.14,0 128.29,0 192.43,0 5.29,0 7.27,0.66 5.95,6.61 -18.52,82.66 -36.37,165.98 -54.22,248.64 -2.64,13.22 -5.95,27.11 -9.26,42.32zm212.93 -273.77c-54.89,72.74 -109.11,146.14 -163.33,218.88 -10.58,14.55 -21.82,28.43 -32.4,42.98 -0.66,1.98 -1.32,3.31 -4.63,3.97 1.98,-2.65 0.66,-5.95 2.65,-8.6 0,0 0,0 0,0 3.97,-17.85 7.27,-35.05 11.24,-52.9 16.53,-74.72 32.4,-150.11 47.61,-224.83 0.66,-3.97 2.65,-6.61 7.27,-7.94 66.79,-23.81 134.24,-48.27 201.03,-72.08 1.98,-0.66 3.97,-2.65 6.61,-0.66 -25.79,33.72 -50.26,67.45 -76.05,101.17zm88.61 -162.01c-0.66,11.24 -0.66,22.48 -2.65,33.06 -72.08,-77.37 -146.14,-152.09 -216.9,-228.8 1.32,-1.98 3.97,-1.98 5.95,-1.98 34.39,-8.6 68.77,-16.53 103.16,-25.13 39.68,-9.92 78.69,-19.18 118.37,-29.1 5.29,-1.32 7.94,-1.98 7.27,5.29 -1.98,31.08 -3.97,61.5 -5.95,92.58 -3.31,50.92 -5.95,102.5 -9.26,154.08zm10.58 27.77c-1.98,-2.65 -0.66,-4.63 -0.66,-6.61 3.31,-50.26 5.95,-101.17 9.26,-151.43 2.65,-39.02 4.63,-78.69 6.61,-117.71 0,-5.95 2.65,-5.95 7.94,-5.29 41,6.61 82,13.23 122.33,19.84 15.21,2.65 29.76,5.29 45.63,7.27 -62.82,85.3 -126.96,169.28 -191.11,253.93zm288.97 -387.5c-0.66,1.32 -0.66,1.98 -1.32,2.65 -28.43,37.69 -56.21,76.05 -84.64,113.74 -2.65,3.97 -4.63,2.65 -7.27,0 -24.47,-23.14 -48.93,-46.29 -74.06,-69.43 -16.53,-15.21 -32.4,-31.08 -49.6,-47.61 73.4,0.66 144.82,0.66 216.9,0.66zm-104.48 121.01c-4.63,-0.66 -6.61,-0.66 -9.26,-0.66 -48.93,-7.94 -97.21,-15.87 -146.14,-23.81 -10.58,-1.98 -10.58,-1.98 -5.95,-11.24 12.56,-26.45 24.47,-53.56 37.03,-81.34 41,39.01 82,78.03 124.32,117.04zm-536.95 -123c14.55,0 29.76,0 44.31,0.66 30.42,0.66 60.84,0 91.92,0.66 85.97,0 172.59,0 258.56,0.66 1.32,0 1.98,0 3.31,0 3.97,0 3.97,1.32 2.65,3.97 -13.23,27.77 -25.79,56.21 -38.35,84.64 -1.32,2.65 -3.31,3.97 -6.61,3.31 -7.27,-1.32 -13.89,-2.65 -21.16,-4.63 -94.56,-24.47 -189.12,-49.6 -283.69,-74.06 -17.19,-4.63 -33.73,-8.6 -50.92,-13.23 -0.66,-1.32 -0.66,-1.32 -0,-1.98zm-27.11 5.95c121.67,30.42 242.69,64.8 365.02,93.24 -1.98,3.31 -4.63,3.31 -6.61,3.97 -67.45,16.53 -134.9,33.06 -202.35,49.6 -11.9,2.64 -21.16,3.97 -26.45,-7.94 -0.66,-1.32 -1.98,-1.98 -2.65,-2.65 -17.19,-17.19 -33.73,-35.71 -50.92,-52.9 -25.79,-25.79 -50.26,-52.24 -74.72,-78.69 -0.66,-1.98 -2.65,-2.64 -1.32,-4.63zm-134.24 186.48c13.89,-23.14 28.43,-44.97 41,-68.77 7.27,-13.89 17.19,-27.11 25.13,-40.34 15.21,-24.47 30.42,-48.93 44.97,-74.06 2.65,-5.29 4.63,-4.63 8.6,-0.66 27.77,29.1 54.22,58.19 82.66,86.63 11.9,11.9 23.14,24.47 35.05,36.37 7.94,8.6 16.53,17.19 25.13,26.45 -88.61,12.56 -175.24,24.47 -263.19,36.37 0,-0.66 0.66,-1.32 0.66,-1.98zm-130.93 212.27c0.66,-0.66 1.32,-1.98 1.98,-2.65 29.76,-48.27 59.51,-95.88 88.61,-144.16 8.6,-14.55 17.85,-29.1 27.77,-44.97 4.63,7.94 8.6,15.21 12.56,21.82 12.56,22.48 26.45,44.97 37.69,68.11 5.95,11.9 13.23,23.14 19.84,34.39 1.98,3.31 1.32,5.29 -2.65,6.61 -9.26,3.31 -17.85,6.61 -26.45,9.92 -52.24,18.52 -103.82,36.37 -156.06,54.89 -1.32,0.66 -2.65,2.65 -3.97,1.32 -1.99,-2.64 -0,-3.97 0.66,-5.29zm160.03 75.38c-36.37,-13.23 -72.74,-27.11 -109.11,-40.34 -16.53,-5.95 -33.06,-12.56 -51.58,-19.18 63.48,-22.48 125.64,-44.31 187.14,-66.13 4.63,-1.98 5.95,-1.32 5.29,3.97 -4.63,41 -9.92,81.34 -13.89,122.33 -0.66,4.63 -1.32,6.61 -6.61,3.97 -3.31,-1.98 -7.27,-3.31 -11.24,-4.63zm-14.55 249.3c-22.48,-23.14 -43.64,-47.61 -66.13,-70.76 -3.31,-3.31 -3.31,-5.29 -0.66,-9.26 27.77,-38.35 54.89,-77.37 82,-115.72 1.98,-3.31 4.63,-5.95 5.95,-9.26 1.98,-4.63 5.29,-7.27 9.26,-11.24 0,83.32 0,165.98 0,248.64 -3.31,-1.32 -4.63,-3.31 -5.95,-4.63 -7.27,-9.92 -15.87,-18.52 -24.47,-27.77zm-13.89 226.82c-43.64,-24.47 -87.95,-49.6 -131.59,-74.06 -1.32,-0.66 -3.31,-1.32 -3.97,-3.31 0.66,-1.98 2.65,-1.98 3.97,-3.31 43.64,-24.47 87.95,-49.6 131.59,-74.06 13.23,-7.27 26.45,-15.21 41.66,-23.14 -3.97,10.58 -5.29,21.16 -7.94,31.08 -6.61,23.14 -13.23,46.29 -19.84,69.43 6.61,23.14 13.23,46.29 19.84,69.43 2.65,9.92 3.97,19.84 7.94,31.08 -15.21,-7.93 -28.43,-15.21 -41.66,-23.14zm35.05 277.73c-1.32,-3.31 -3.97,-5.95 -5.95,-9.26 -27.11,-38.35 -54.89,-77.37 -82,-115.72 -2.65,-3.31 -2.65,-5.95 0.66,-9.26 21.82,-23.81 43.64,-47.61 66.13,-70.76 8.6,-9.26 17.85,-17.19 25.13,-27.11 1.32,-1.98 2.65,-3.97 5.95,-4.63 0,82.66 0,165.32 -0,248.64 -3.97,-4.63 -7.93,-7.27 -9.92,-11.9zm-115.72 84.64c36.37,-13.23 72.74,-27.11 109.11,-40.34 3.97,-1.32 7.94,-2.65 11.24,-4.63 5.29,-2.65 5.95,-0.66 6.61,3.97 4.63,41 9.26,82 13.89,122.33 0.66,4.63 0,5.29 -5.29,3.97 -62.16,-21.82 -123.66,-43.64 -187.14,-66.13 18.52,-6.61 35.05,-12.56 51.58,-19.18zm39.68 181.85c-29.76,-48.27 -59.51,-95.88 -88.61,-144.16 -0.66,-0.66 -1.32,-1.98 -1.98,-2.65 -0.66,-1.32 -2.65,-2.65 -0.66,-4.63 1.32,-1.32 2.65,0.66 3.97,1.32 52.24,17.85 104.48,36.37 156.06,54.89 9.26,3.31 17.85,6.61 26.45,9.92 3.97,1.32 4.63,3.31 2.65,6.61 -7.27,11.24 -14.55,22.48 -19.84,34.39 -11.9,23.14 -25.79,44.97 -37.69,68.11 -3.97,6.61 -7.94,13.89 -12.56,21.82 -9.92,-16.53 -19.18,-31.08 -27.77,-45.63zm151.43 248.64c-14.55,-24.47 -29.76,-49.6 -44.97,-74.06 -8.6,-13.23 -17.85,-26.45 -25.13,-40.34 -12.56,-23.14 -27.11,-45.63 -41,-68.77 -0.66,-0.66 -0.66,-1.32 -1.32,-3.31 87.95,11.9 175.24,24.47 263.19,36.37 -8.6,9.26 -17.19,17.85 -25.13,26.45 -11.24,12.56 -22.48,24.47 -35.05,36.37 -28.43,28.43 -55.55,57.53 -82.66,86.63 -3.31,5.29 -4.63,5.95 -7.94,0.66zm24.47 -0.66c25.13,-26.45 49.6,-52.9 74.72,-78.69 17.19,-17.19 33.73,-35.71 50.92,-52.9 0.66,-0.66 1.98,-1.98 2.65,-2.65 5.29,-12.56 14.55,-11.24 26.45,-7.94 67.45,17.19 134.9,33.06 202.35,49.6 1.98,0.66 4.63,0.66 6.61,3.97 -123,29.1 -243.35,62.82 -365.02,93.24 -1.32,-2.64 0.66,-3.31 1.32,-4.63zm423.88 9.26c-1.32,0 -1.98,0 -3.31,0 -85.97,0 -172.59,0 -258.56,0.66 -30.42,0 -60.84,0 -91.92,0 -14.55,0 -29.76,0 -44.31,0.66 0,-0.66 0,-1.32 -0.66,-1.32 17.19,-4.63 33.73,-8.6 50.92,-13.23 94.56,-24.47 189.12,-48.93 283.69,-74.06 7.27,-1.98 13.89,-3.31 21.16,-4.63 3.97,-0.66 5.29,0.66 6.61,3.31 12.56,28.43 25.79,56.21 38.35,84.64 1.98,2.64 1.32,3.97 -1.98,3.97zm14.55 -4.63c-12.56,-27.77 -25.13,-54.89 -37.03,-81.34 -4.63,-9.26 -4.63,-9.26 5.95,-11.24 48.93,-7.94 97.21,-15.87 146.14,-23.81 2.65,-0.66 4.63,-0.66 9.26,-0.66 -42.32,39.01 -83.32,77.37 -124.32,117.04zm228.8 3.31c-72.08,0 -143.5,0 -216.24,0 17.19,-16.53 33.73,-31.74 49.6,-47.61 24.47,-23.14 48.93,-46.29 74.06,-69.43 2.65,-2.65 4.63,-3.31 7.27,0 28.43,38.35 56.21,76.05 84.64,113.74 0,0.66 0,1.98 0.66,3.31zm-943.63 -779.64l0 0 0 0zm0 -195.08l0 0 0 0zm-169.95 496.61c36.37,13.23 72.74,27.11 109.11,40.34 16.53,5.95 33.06,12.56 51.58,19.18 -63.48,22.48 -125.64,44.31 -187.14,66.13 -4.63,1.98 -5.95,1.32 -5.29,-3.97 4.63,-41 9.92,-81.34 13.89,-122.33 0.66,-4.63 1.32,-6.61 6.61,-3.97 3.31,1.98 7.27,3.31 11.24,4.63zm-29.1 -41c-44.97,-95.22 -88.61,-189.78 -134.24,-283.69 3.31,-1.32 5.29,0.66 7.27,1.32 40.34,12.56 81.34,25.79 121.67,38.35 5.29,1.98 7.27,3.97 7.27,9.26 0,75.38 0,151.43 0,226.82 -0.66,1.98 0.66,4.63 -1.98,7.94zm0 42.32c0,0 0,0 0,0 -3.97,35.05 -7.94,68.77 -12.56,103.16 -0.66,6.61 -0.66,13.89 -3.31,21.16 -60.84,-44.31 -121.01,-88.61 -181.19,-132.25 0,-0.66 0.66,-1.32 0.66,-1.32 2.65,0 4.63,0 7.27,0 59.51,0 119.69,0 179.2,0 11.24,-0.66 11.24,-0.66 9.92,9.26zm-45.63 115.06c6.61,5.29 13.89,9.92 21.16,15.87 -2.65,0.66 -3.97,1.32 -4.63,1.32 -31.74,6.61 -63.48,12.56 -95.88,18.52 -3.31,0.66 -5.95,0 -9.26,-0.66 -26.45,-7.27 -52.24,-14.55 -78.69,-21.82 -62.16,-17.19 -124.32,-34.39 -187.14,-50.92 -9.92,-2.65 -19.84,-5.95 -31.74,-8.6 3.31,-1.32 5.29,-2.65 7.94,-3.31 64.8,-23.14 129.61,-46.29 194.41,-70.09 9.26,-3.31 15.21,-3.31 24.47,3.31 52.9,39.68 106.46,78.03 159.37,116.38zm-383.54 -34.39c1.32,-1.32 3.31,0 4.63,0.66 0,0 0,0 0,0 1.32,0.66 3.31,0.66 4.63,1.32 73.4,19.84 146.14,40.34 219.54,60.84 19.18,5.29 38.35,10.58 57.53,15.87 4.63,1.32 5.29,2.65 2.65,6.61 -2.65,3.97 -5.29,8.6 -7.27,12.56 -21.16,40.34 -44.31,80.01 -63.48,121.01 -3.97,7.94 -3.97,7.94 -10.58,1.32 -45.63,-47.61 -89.93,-95.88 -136.22,-142.83 -23.81,-24.47 -46.95,-49.6 -70.09,-74.72 -0.66,-0.66 -2.65,-1.32 -1.32,-2.64zm302.86 83.32l182.51 109.77 -260.54 37.03 78.03 -146.8zm178.54 95.88c-54.89,-33.06 -109.11,-67.45 -165.32,-99.85 31.74,-5.95 63.48,-12.56 94.56,-18.52 3.97,-0.66 5.95,1.32 7.27,3.97 10.58,20.5 24.47,39.68 34.39,60.84 5.95,13.23 14.55,25.79 21.82,38.35 2.65,4.63 5.29,9.26 7.94,14.55 0.66,-0.66 0,0 -0.66,0.66zm-8.6 -510.5c22.48,23.14 43.64,47.61 66.13,70.76 3.31,3.31 3.31,5.29 0.66,9.26 -27.77,38.35 -54.89,77.37 -82,115.72 -1.98,3.31 -4.63,5.95 -5.95,9.26 -1.98,4.63 -5.29,7.27 -9.26,11.24 0,-83.32 0,-165.98 0,-248.64 3.31,1.32 4.63,3.31 5.95,4.63 7.27,9.92 15.87,18.52 24.47,27.77zm13.89 -226.82c43.64,24.47 87.95,49.6 131.59,74.06 1.32,0.66 3.31,1.32 3.97,3.31 -0.66,1.98 -2.65,1.98 -3.97,3.31 -43.64,24.47 -87.95,49.6 -131.59,74.06 -13.23,7.27 -26.45,15.21 -41.66,23.14 3.97,-10.58 5.29,-21.16 7.94,-31.08 6.61,-23.14 13.23,-46.29 19.84,-69.43 -6.61,-23.14 -13.23,-46.29 -19.84,-69.43 -2.65,-9.92 -3.97,-19.84 -7.94,-31.08 15.21,7.93 28.43,15.87 41.66,23.14zm-35.05 -277.73c1.32,3.31 3.97,5.95 5.95,9.26 27.11,38.35 54.89,77.37 82,115.72 2.65,3.31 2.65,5.95 -0.66,9.26 -21.82,23.81 -43.64,47.61 -66.13,70.76 -8.6,9.26 -17.85,17.19 -25.13,27.11 -1.32,1.98 -2.65,3.97 -5.95,4.63 0,-82.66 0,-165.32 0,-248.64 3.97,4.63 7.93,7.27 9.92,11.9zm115.72 -84.64c-36.37,13.23 -72.74,27.11 -109.11,40.34 -3.97,1.32 -7.94,2.65 -11.24,4.63 -5.29,2.65 -5.95,0.66 -6.61,-3.97 -4.63,-41 -9.26,-82 -13.89,-122.33 -0.66,-4.63 0,-5.29 5.29,-3.97 62.16,21.82 123.66,43.64 187.14,66.13 -18.52,6.61 -35.05,13.23 -51.58,19.18zm-264.51 -124.98l-78.03 -146.8 260.54 37.03 -182.51 109.77zm179.87 -94.56c-2.65,4.63 -5.29,9.26 -7.94,14.55 -7.27,12.56 -15.87,25.13 -21.82,38.35 -9.92,21.16 -23.81,40.34 -34.39,60.84 -1.32,2.65 -2.65,4.63 -7.27,3.97 -31.74,-6.61 -62.82,-12.56 -94.56,-18.52 56.21,-32.4 110.43,-66.79 165.32,-99.85 0,0 0.66,0.66 0.66,0.66zm-201.03 80.67c1.98,4.63 4.63,8.6 7.27,12.56 2.65,3.31 1.98,5.29 -2.65,6.61 -19.18,5.29 -38.35,10.58 -57.53,15.87 -73.4,20.5 -146.14,40.34 -219.54,60.84 -1.32,0.66 -3.31,0.66 -4.63,1.32 0,0 0,0 0,0 -1.32,1.32 -3.31,1.98 -4.63,0.66 -1.32,-1.32 0.66,-1.98 1.32,-2.65 23.14,-25.13 46.29,-50.26 70.09,-74.72 46.29,-46.95 90.59,-95.22 136.22,-142.83 6.61,-6.61 6.61,-6.61 10.58,1.32 19.18,41 42.98,80.01 63.48,121.01zm-251.94 100.51c62.16,-17.19 124.32,-34.39 187.14,-50.92 26.45,-7.27 52.24,-14.55 78.69,-21.82 3.31,-0.66 5.95,-1.32 9.26,-0.66 31.74,6.61 63.48,12.56 95.88,18.52 1.32,0 2.65,0.66 4.63,1.32 -7.94,5.29 -14.55,10.58 -21.16,15.87 -52.9,39.02 -106.46,77.37 -159.37,116.38 -8.6,6.61 -14.55,6.61 -24.47,3.31 -64.8,-23.81 -129.61,-46.95 -194.41,-70.09 -1.98,-0.66 -3.97,-1.98 -7.94,-3.31 11.24,-3.31 21.82,-5.95 31.74,-8.6zm383.54 -46.29c2.65,7.27 2.65,13.89 3.31,21.16 3.97,34.39 7.94,68.11 11.9,102.5 0,0 0,0.66 0,0.66 1.32,9.92 1.32,9.92 -9.92,9.92 -59.51,0 -119.69,0 -179.2,0 -2.65,0 -4.63,0 -7.27,0 0,-0.66 -0.66,-1.32 -0.66,-1.32 60.84,-44.3 121.01,-88.61 181.85,-132.92zm15.87 166.64c2.65,3.31 1.98,5.95 1.98,7.94 0,75.38 0,151.43 0,226.82 0,5.29 -1.98,7.27 -7.27,9.26 -40.34,12.56 -81.34,25.79 -121.67,38.35 -1.98,0.66 -3.97,1.98 -7.27,1.32 44.97,-94.56 89.27,-188.46 134.24,-283.69zm98.53 -263.85c29.76,48.27 59.51,95.88 88.61,144.16 0.66,0.66 1.32,1.98 1.98,2.65 0.66,1.32 2.65,2.65 0.66,4.63 -1.32,1.32 -2.65,-0.66 -3.97,-1.32 -52.24,-17.85 -104.48,-36.37 -156.06,-54.89 -9.26,-3.31 -17.85,-6.61 -26.45,-9.92 -3.97,-1.32 -4.63,-3.31 -2.65,-6.61 7.27,-11.24 14.55,-22.48 19.84,-34.39 11.9,-23.14 25.79,-44.97 37.69,-68.11 3.97,-6.61 7.94,-13.89 12.56,-21.82 9.92,16.53 19.18,31.08 27.77,45.63zm-151.43 -248.64c14.55,24.47 29.76,49.6 44.97,74.06 8.6,13.23 17.85,26.45 25.13,40.34 12.56,23.14 27.11,45.63 41,68.77 0.66,0.66 0.66,1.32 1.32,3.31 -87.95,-11.9 -175.24,-24.47 -263.19,-36.37 8.6,-9.26 17.19,-17.85 25.13,-26.45 11.24,-12.56 22.48,-24.47 35.05,-36.37 28.43,-28.43 55.55,-57.53 82.66,-86.63 3.31,-5.29 4.63,-5.29 7.94,-0.66zm-24.47 0.66c-25.13,26.45 -49.6,52.9 -74.72,78.69 -17.19,17.19 -33.73,35.71 -50.92,52.9 -0.66,0.66 -1.98,1.98 -2.65,2.65 -5.29,12.56 -14.55,11.24 -26.45,7.94 -67.45,-17.19 -134.9,-33.06 -202.35,-49.6 -1.98,-0.66 -4.63,-0.66 -6.61,-3.97 123,-29.1 243.35,-62.82 365.02,-93.24 1.32,2.64 -0.66,3.31 -1.32,4.63zm-423.88 -8.6c1.32,0 1.98,0 3.31,0 85.97,0 172.59,0 258.56,-0.66 30.42,0 60.84,0 91.92,-0.66 14.55,0 29.76,0 44.31,-0.66 0,0.66 0,1.32 0.66,1.32 -17.19,4.63 -33.73,8.6 -50.92,13.23 -94.56,25.13 -189.12,49.6 -283.69,74.72 -7.27,1.98 -13.89,3.31 -21.16,4.63 -3.97,0.66 -5.29,-0.66 -6.61,-3.31 -12.56,-28.43 -25.79,-56.21 -38.35,-84.64 -1.98,-2.64 -1.32,-4.63 1.98,-3.97zm-14.55 3.97c12.56,27.77 25.13,54.89 37.03,81.34 4.63,9.26 4.63,9.26 -5.95,11.24 -48.93,7.94 -97.21,15.87 -146.14,23.81 -2.65,0.66 -4.63,0.66 -9.26,0.66 42.32,-38.35 83.32,-77.37 124.32,-117.04zm-142.83 113.74c-28.43,-37.69 -56.87,-76.05 -84.64,-113.74 -0.66,-0.66 -0.66,-1.32 -1.32,-3.31 72.08,0 143.5,0 216.24,0 -17.19,16.53 -33.73,31.74 -49.6,47.61 -24.47,23.14 -48.93,46.29 -74.06,69.43 -2.64,2.64 -3.97,3.97 -6.61,0zm203.01 270.46c-64.14,-84.64 -128.29,-168.62 -191.11,-254.59 15.87,-2.65 30.42,-5.29 45.63,-7.27 41,-6.61 82,-13.23 122.33,-19.84 5.29,-0.66 7.27,-0.66 7.94,5.29 1.98,39.68 4.63,78.69 6.61,117.71 3.31,50.26 5.95,101.17 9.26,151.43 0,1.98 0.66,4.63 -0.66,7.27zm13.23 5.29c-1.98,-11.24 -1.98,-22.48 -2.65,-33.06 -3.31,-51.58 -5.95,-103.16 -9.26,-154.74 -1.98,-31.08 -3.31,-62.16 -5.95,-92.58 -0.66,-6.61 1.98,-6.61 7.27,-5.29 39.68,9.92 78.69,19.84 118.37,29.1 34.39,8.6 68.77,16.53 103.16,25.13 1.98,0.66 3.97,0 5.95,1.98 -70.76,77.37 -144.82,152.09 -216.9,229.46zm281.7 390.81c-10.58,-14.55 -21.82,-28.43 -32.4,-42.98 -54.22,-72.74 -108.45,-146.14 -163.33,-218.88 -25.13,-33.73 -50.26,-67.45 -76.05,-100.51 2.65,-1.98 4.63,0 6.61,0.66 66.79,23.81 134.24,48.27 201.03,72.08 4.63,1.32 5.95,3.97 7.27,7.94 14.55,75.38 31.08,150.11 47.61,224.83 3.97,17.85 7.27,35.05 11.24,52.9 0,0 0,0 0,0 1.98,2.65 0.66,5.29 2.65,8.6 -3.3,-1.32 -3.97,-2.65 -4.63,-4.63zm17.19 11.9c-3.31,-15.21 -6.61,-29.1 -9.26,-42.98 -17.85,-82.66 -36.37,-165.98 -54.22,-248.64 -1.32,-5.29 0.66,-6.61 5.95,-6.61 64.14,0 128.29,0 192.43,0 7.27,0 7.27,0 4.63,6.61 -35.71,74.06 -70.09,148.79 -105.8,222.85 -9.92,20.5 -19.84,41 -29.76,61.5 -1.32,1.99 -1.98,3.97 -3.97,7.28zm23.14 42.32c-4.63,-5.95 -8.6,-11.9 -13.23,-17.85 -2.65,-3.31 -1.98,-4.63 2.65,-5.95 34.39,-10.58 68.11,-21.82 102.5,-32.4 0,0 0,0 0,0 1.98,-1.32 3.31,-2.65 5.95,-1.98 0,1.98 -1.32,2.65 -3.31,3.31 -25.13,19.18 -50.26,38.35 -75.38,57.53 -11.24,8.6 -11.24,7.93 -19.18,-2.65zm19.84 57.53c8.6,-5.95 17.19,-11.9 25.13,-18.52 -8.6,-5.95 -16.53,-12.56 -25.13,-18.52 -3.31,-1.98 -2.65,-3.31 0,-5.29 33.06,-25.13 66.13,-50.26 99.19,-75.38 3.97,-3.31 5.95,-2.65 7.94,2.65 4.63,17.85 11.24,35.05 15.21,52.9 3.31,14.55 7.27,29.1 11.9,42.98 -4.63,14.55 -8.6,28.43 -11.9,42.98 -3.97,17.85 -9.92,35.71 -15.21,52.9 -1.32,5.29 -3.31,5.95 -7.94,2.65 -33.06,-25.13 -66.13,-50.26 -99.19,-75.38 -2.64,-0 -3.31,-1.32 0,-3.97zm-33.06 39.02c4.63,-5.95 8.6,-11.9 13.23,-17.85 7.94,-10.58 7.94,-10.58 18.52,-2.65 25.13,19.18 50.26,38.35 75.38,57.53 1.98,0.66 3.31,0.66 3.31,3.31 -2.65,0.66 -3.97,-0.66 -5.95,-1.98 0,0 0,0 0,0 -34.39,-10.58 -68.11,-21.82 -102.5,-32.4 -3.31,-1.32 -4.63,-2.64 -1.99,-5.95zm-9.92 24.47c1.98,3.31 2.65,5.29 3.97,6.61 9.92,20.5 19.84,41 29.76,61.5 35.71,74.06 69.43,148.79 105.8,222.85 3.31,6.61 3.31,6.61 -4.63,6.61 -64.14,0 -128.29,0 -192.43,0 -5.29,0 -7.27,-0.66 -5.95,-6.61 18.52,-82.66 36.37,-165.98 54.22,-248.64 2.64,-13.22 5.95,-27.11 9.26,-42.32zm-212.93 273.77c54.89,-72.74 109.11,-146.14 163.33,-218.88 10.58,-14.55 21.82,-28.43 32.4,-42.98 0.66,-1.98 1.32,-3.31 4.63,-3.97 -1.98,2.65 -0.66,5.95 -2.65,8.6 0,0 0,0 0,0 -3.97,17.85 -7.27,35.05 -11.24,52.9 -16.53,74.72 -32.4,150.11 -47.61,224.83 -0.66,3.97 -2.65,6.61 -7.27,7.94 -66.79,23.81 -134.24,48.27 -201.03,72.08 -1.98,0.66 -3.97,2.65 -6.61,0.66 25.79,-33.72 50.92,-67.45 76.05,-101.17zm-88.61 162.67c0.66,-11.24 0.66,-22.48 2.65,-33.06 72.08,77.37 146.14,152.09 216.9,228.8 -1.32,1.98 -3.97,1.98 -5.95,1.98 -34.39,8.6 -68.77,16.53 -103.16,25.13 -39.68,9.92 -78.69,19.18 -118.37,29.1 -5.29,1.32 -7.94,1.98 -7.27,-5.29 1.98,-31.08 3.97,-61.5 5.95,-92.58 3.31,-50.92 5.95,-102.5 9.26,-154.08zm-10.58 -27.77c1.98,2.65 0.66,4.63 0.66,6.61 -3.31,50.26 -5.95,101.17 -9.26,151.43 -2.65,39.02 -4.63,78.69 -6.61,117.71 0,5.95 -2.65,5.95 -7.94,5.29 -41,-6.61 -82,-13.23 -122.33,-19.84 -15.21,-2.65 -29.76,-5.29 -45.63,-7.27 62.82,-85.3 126.96,-169.28 191.11,-253.93zm-288.97 386.84c0.66,-1.32 0.66,-1.98 1.32,-2.65 28.43,-37.69 56.21,-76.05 84.64,-113.74 2.65,-3.97 4.63,-2.65 7.27,0 24.47,23.14 48.93,46.29 74.06,69.43 16.53,15.21 32.4,31.08 49.6,47.61 -73.4,-0.66 -144.82,-0.66 -216.9,-0.66zm104.48 -121.01c4.63,0.66 6.61,0.66 9.26,0.66 48.93,7.94 97.21,15.87 146.14,23.81 10.58,1.98 10.58,1.98 5.95,11.24 -12.56,26.45 -24.47,53.56 -37.03,81.34 -41,-39.01 -82,-77.37 -124.32,-117.04zm537.61 123.66c-14.55,0 -29.76,0 -44.31,-0.66 -30.42,-0.66 -60.84,0 -91.92,0 -85.97,0 -172.59,0 -258.56,-0.66 -1.32,0 -1.98,0 -3.31,0 -3.97,0 -3.97,-1.32 -2.65,-3.97 13.23,-27.77 25.79,-56.21 38.35,-84.64 1.32,-2.65 3.31,-3.97 6.61,-3.31 7.27,1.32 13.89,2.65 21.16,4.63 94.56,24.47 189.12,49.6 283.69,74.06 17.19,4.63 33.73,8.6 50.92,13.23 0,0 0,0.66 0,1.32zm26.45 -5.95c-121.67,-30.42 -242.69,-64.8 -365.02,-93.24 1.98,-3.31 4.63,-3.31 6.61,-3.97 67.45,-16.53 134.9,-33.06 202.35,-49.6 11.9,-2.65 21.16,-3.97 26.45,7.94 0.66,1.32 1.98,1.98 2.65,2.65 17.19,17.19 33.73,35.71 50.92,52.9 25.79,25.79 50.26,52.24 74.72,78.69 0.66,1.32 2.65,1.98 1.32,4.63zm134.24 -186.48c-13.89,23.14 -28.43,44.97 -41,68.77 -7.27,13.89 -17.19,27.11 -25.13,40.34 -15.21,24.47 -30.42,48.93 -44.97,74.06 -2.65,5.29 -4.63,4.63 -8.6,0.66 -27.77,-29.1 -54.22,-58.19 -82.66,-86.63 -11.9,-11.9 -23.14,-24.47 -35.05,-36.37 -7.94,-8.6 -16.53,-17.19 -25.13,-26.45 88.61,-12.56 175.24,-24.47 263.19,-36.37 0,-0 0,1.32 -0.66,1.98zm130.93 -212.93c-0.66,0.66 -1.32,1.98 -1.98,2.65 -29.76,48.27 -59.51,95.88 -88.61,144.16 -8.6,14.55 -17.85,29.1 -27.77,44.97 -4.63,-7.94 -8.6,-15.21 -12.56,-21.82 -12.56,-22.48 -26.45,-44.97 -37.69,-68.11 -5.95,-11.9 -13.23,-23.14 -19.84,-34.39 -1.98,-3.31 -1.32,-5.29 2.65,-6.61 9.26,-3.31 17.85,-6.61 26.45,-9.92 52.24,-18.52 103.82,-36.37 156.06,-54.89 1.32,-0.66 2.65,-2.65 3.97,-1.32 1.99,2.64 0,3.97 -0.66,5.29z"></path>
 </g>
<style data-made-with="vivus-instant">.ujbkgyNK_0{stroke-dasharray:69117 69119;stroke-dashoffset:69118;animation:ujbkgyNK_draw_0 26000ms ease-in-out 0ms infinite,ujbkgyNK_fade 26000ms linear 0ms infinite;}@keyframes ujbkgyNK_draw{100%{stroke-dashoffset:0;}}@keyframes ujbkgyNK_fade{0%{stroke-opacity:1;}61.53846153846153%{stroke-opacity:1;}100%{stroke-opacity:0;}}@keyframes ujbkgyNK_draw_0{3.8461538461538463%{stroke-dashoffset: 69118}61.53846153846154%{ stroke-dashoffset: 0;}100%{ stroke-dashoffset: 0;}}</style></svg>
